<svg xmlns="http://www.w3.org/2000/svg" id="SvgjsSvg402288" width="4096" height="1107.5463612701765" version="1.1" xmlns:xlink="http://www.w3.org/1999/xlink" xmlns:svgjs="http://svgjs.com/svgjs"><defs id="SvgjsDefs402289"></defs><g id="SvgjsG402290" transform="translate(328, 328.00000000000006) scale(34.4)" opacity="1"><defs id="SvgjsDefs117837"></defs><g id="SvgjsG117838" transform="scale(0.21645021645021645)" opacity="1"><g id="SvgjsG117839" class="o5ehhaxPH" transform="translate(-33.84198134118212, -28.799916410993813) scale(1.1707283093899923)" light-content="false" non-strokable="false" fill="#29292e"><path d="M51.7 51.9l15.9 15.9c5.7-7.8 6.2-19.2-1.4-27.5L51.7 24.6v27.3zm-2.6 0V24.6L34.6 40.3C27 48.5 27.5 60 33.2 67.8l15.9-15.9zm0 3.8L34.9 69.8c3.5 3.7 8.3 6.2 14.2 6.5V55.7zm2.6 0v20.7c5.8-.3 10.7-2.8 14.2-6.5L51.7 55.7z"></path></g><g id="SvgjsG117840" class="text" transform="translate(275.6279298231802, 55.0336438688668) scale(1)" light-content="false" fill="#29292e"><path d="M-145.72 0L-142.64 0L-163.88 -49.41L-166.68 -49.41L-187.92 0L-184.9 0L-179.02 -13.67L-151.61 -13.67ZM-177.82 -16.47L-165.28 -45.63L-152.8 -16.47Z M-130.58 -49.41L-133.53 -49.41L-133.53 0L-130.58 0L-130.58 -23.76L-97.36 -23.76L-97.36 -26.42L-130.58 -26.42ZM-97.29 -49.41L-97.29 0L-94.34 0L-94.34 -49.41Z M-80.89 0L-78.01 0L-78.01 -49.41L-80.89 -49.41Z M-21.73 -49.41L-41.77 -10.51L-62.03 -49.41L-64.55 -49.41L-64.55 0L-61.68 0L-61.75 -42.97L-42.97 -7.71L-40.58 -7.71L-21.94 -43.25L-22.01 0L-19.14 0L-19.14 -49.41Z M-0.98 -1.05C1.92 0.02 5.3 0.56 9.18 0.56C12.55 0.56 15.5 0 18.05 -1.12C20.6 -2.24 22.57 -3.81 23.97 -5.82C25.37 -7.83 26.07 -10.14 26.07 -12.76C26.07 -15.51 25.34 -17.71 23.87 -19.35C22.39 -20.98 20.61 -22.18 18.5 -22.96C16.4 -23.73 13.67 -24.49 10.3 -25.23L7.29 -25.93C3.41 -26.92 0.4 -28.12 -1.75 -29.54C-3.9 -30.97 -4.98 -33.18 -4.98 -36.17C-4.98 -39.63 -3.74 -42.31 -1.26 -44.23C1.21 -46.14 4.67 -47.1 9.11 -47.1C12.06 -47.1 14.73 -46.61 17.14 -45.63C19.54 -44.65 21.92 -43.06 24.25 -40.86L25.72 -43.32C21.42 -47.76 15.89 -49.98 9.11 -49.98C5.65 -49.98 2.63 -49.41 0.04 -48.29C-2.56 -47.17 -4.54 -45.58 -5.92 -43.53C-7.3 -41.47 -7.99 -39.06 -7.99 -36.31C-7.99 -33.22 -7.14 -30.78 -5.43 -28.98C-3.73 -27.18 -1.79 -25.9 0.39 -25.13C2.56 -24.36 5.65 -23.48 9.67 -22.5C12.66 -21.8 15.05 -21.13 16.82 -20.5C18.6 -19.87 20.09 -18.95 21.31 -17.73C22.52 -16.52 23.13 -14.93 23.13 -12.97C23.13 -9.56 21.92 -6.93 19.49 -5.08C17.06 -3.24 13.62 -2.31 9.18 -2.31C5.58 -2.31 2.55 -2.78 0.07 -3.71C-2.41 -4.65 -4.88 -6.26 -7.36 -8.55L-8.83 -6.1C-6.5 -3.81 -3.88 -2.13 -0.98 -1.05Z M74.16 0L77.24 0L56 -49.41L53.2 -49.41L31.96 0L34.98 0L40.86 -13.67L68.27 -13.67ZM42.06 -16.47L54.6 -45.63L67.08 -16.47Z M139.97 -49.41L120.35 -3.71L100.72 -49.41L97.71 -49.41L118.88 0L121.75 0L143.06 -49.41Z M157.81 -2.45C161.11 -0.44 165.02 0.56 169.55 0.56C176.47 0.56 182.08 -1.66 186.38 -6.1L184.9 -8.55C182.47 -6.31 180.06 -4.71 177.65 -3.75C175.24 -2.79 172.52 -2.31 169.48 -2.31C163.5 -2.31 158.86 -4.28 155.57 -8.2C152.28 -12.13 150.63 -17.64 150.63 -24.74C150.63 -31.8 152.28 -37.29 155.57 -41.21C158.86 -45.14 163.5 -47.1 169.48 -47.1C172.52 -47.1 175.24 -46.62 177.65 -45.67C180.06 -44.71 182.47 -43.11 184.9 -40.86L186.38 -43.32C182.08 -47.76 176.47 -49.98 169.55 -49.98C165.02 -49.98 161.11 -48.97 157.81 -46.96C154.52 -44.95 151.98 -42.06 150.21 -38.27C148.43 -34.49 147.54 -29.98 147.54 -24.74C147.54 -19.51 148.43 -14.99 150.21 -11.18C151.98 -7.37 154.52 -4.46 157.81 -2.45Z"></path></g></g></g></svg>