<?xml version="1.0" standalone="no"?>
<!DOCTYPE svg PUBLIC "-//W3C//DTD SVG 20010904//EN"
 "http://www.w3.org/TR/2001/REC-SVG-20010904/DTD/svg10.dtd">
<svg version="1.0" xmlns="http://www.w3.org/2000/svg"
 width="2476.000000pt" height="620.000000pt" viewBox="0 0 2476.000000 620.000000"
 preserveAspectRatio="xMidYMid meet">

<g transform="translate(0.000000,620.000000) scale(0.100000,-0.100000)"
fill="#000000" stroke="none">
<path d="M3400 4984 c-409 -29 -809 -191 -1125 -456 -592 -495 -836 -1293
-626 -2038 33 -117 84 -245 134 -334 42 -75 81 -99 155 -93 l54 4 801 800
c441 441 816 808 832 816 53 26 92 29 147 13 48 -14 68 -31 200 -163 80 -81
153 -162 162 -180 20 -41 21 -123 1 -171 -11 -26 -262 -284 -834 -857 -451
-451 -824 -831 -831 -844 -18 -35 -4 -86 31 -115 16 -14 69 -45 116 -68 71
-35 96 -43 142 -42 109 0 112 3 421 310 157 155 298 288 313 293 40 15 73 14
110 -5 18 -9 151 -134 297 -279 300 -297 306 -301 439 -293 76 4 137 31 270
120 310 209 567 519 711 861 109 257 153 482 153 772 -1 277 -42 487 -142 736
-147 360 -413 683 -738 896 -236 154 -503 256 -776 297 -102 16 -326 26 -417
20z"/>
<path d="M21975 3869 c-248 -26 -482 -155 -640 -352 -83 -103 -166 -270 -202
-402 -25 -91 -27 -115 -27 -280 1 -197 9 -246 73 -411 122 -316 413 -576 713
-638 106 -22 280 -20 393 3 264 54 491 208 594 401 l30 56 -156 89 c-86 50
-159 91 -163 93 -5 2 -22 -22 -39 -52 -40 -69 -141 -163 -213 -198 -287 -140
-606 -18 -753 287 -67 138 -79 196 -79 365 1 128 4 155 28 235 64 212 196 366
363 427 79 29 236 36 322 14 140 -36 261 -124 317 -231 16 -30 32 -55 36 -55
11 0 298 200 298 208 0 22 -70 122 -128 183 -144 154 -315 235 -542 259 -106
11 -112 11 -225 -1z"/>
<path d="M6660 2820 l0 -1040 730 0 730 0 0 175 0 175 -530 0 -530 0 0 865 0
865 -200 0 -200 0 0 -1040z"/>
<path d="M8770 2820 l0 -1040 720 0 720 0 0 175 0 175 -520 0 -520 0 0 275 0
275 440 0 440 0 0 165 0 165 -440 0 -440 0 0 250 0 250 510 0 510 0 0 175 0
175 -710 0 -710 0 0 -1040z"/>
<path d="M10714 3843 c4 -10 187 -478 408 -1040 l401 -1023 168 0 167 0 46
118 c25 64 207 531 405 1037 l359 920 -206 3 c-113 1 -209 -1 -212 -5 -4 -5
-130 -357 -281 -785 -151 -427 -276 -775 -279 -773 -3 2 -132 355 -285 784
l-279 781 -209 0 c-195 0 -209 -1 -203 -17z"/>
<path d="M13280 2820 l0 -1040 720 0 720 0 0 175 0 175 -520 0 -520 0 0 275 0
275 440 0 440 0 0 165 0 165 -440 0 -440 0 0 250 0 250 510 0 510 0 0 175 0
175 -710 0 -710 0 0 -1040z"/>
<path d="M15430 2820 l0 -1040 200 0 200 0 0 350 0 350 203 0 203 0 219 -350
220 -350 222 0 c123 0 223 2 223 5 0 3 -108 178 -240 389 -132 211 -240 386
-240 389 0 3 19 15 43 27 113 59 203 156 264 287 156 335 12 749 -320 919
-125 64 -128 64 -689 64 l-508 0 0 -1040z m996 671 c59 -27 112 -84 148 -160
28 -59 31 -76 31 -156 0 -147 -58 -262 -160 -314 -49 -26 -51 -26 -332 -29
l-283 -3 0 340 0 341 278 0 c249 0 281 -2 318 -19z"/>
<path d="M18664 3843 c4 -10 187 -478 408 -1040 l401 -1023 168 0 167 0 46
118 c25 64 207 531 405 1037 l359 920 -206 3 c-113 1 -209 -1 -212 -5 -4 -5
-130 -357 -281 -785 -151 -427 -276 -775 -279 -773 -3 2 -132 355 -285 784
l-279 781 -209 0 c-195 0 -209 -1 -203 -17z"/>
</g>
</svg>
