<?xml version="1.0" standalone="no"?>
<!DOCTYPE svg PUBLIC "-//W3C//DTD SVG 20010904//EN"
 "http://www.w3.org/TR/2001/REC-SVG-20010904/DTD/svg10.dtd">
<svg version="1.0" xmlns="http://www.w3.org/2000/svg"
 width="574.000000pt" height="573.000000pt" viewBox="0 0 574.000000 573.000000"
 preserveAspectRatio="xMidYMid meet">

<g transform="translate(0.000000,573.000000) scale(0.100000,-0.100000)"
fill="#000000" stroke="none">
<path d="M2675 4804 c-801 -64 -1476 -592 -1724 -1350 -47 -144 -76 -285 -91
-454 -31 -336 51 -751 203 -1024 42 -75 81 -99 155 -93 l54 4 801 800 c441
441 816 808 832 816 50 24 97 28 150 12 44 -13 69 -34 197 -162 80 -82 153
-162 162 -180 20 -41 21 -123 1 -171 -11 -26 -262 -284 -834 -857 -451 -451
-824 -831 -831 -844 -18 -35 -4 -86 31 -115 16 -14 69 -45 116 -68 71 -35 96
-43 142 -42 109 0 112 3 421 310 157 155 298 288 313 293 40 15 73 14 110 -5
18 -9 151 -134 297 -279 300 -297 306 -301 439 -293 76 4 137 31 270 120 310
209 567 519 711 861 109 257 153 482 153 772 -1 277 -42 487 -142 736 -145
355 -402 670 -726 889 -225 152 -514 263 -789 305 -102 15 -336 26 -421 19z"/>
</g>
</svg>
